# xmcd
#
# Track frame offsets:
#	150
#	14824
#	27344
#	47715
#	60432
#	79093
#	81498
#	97907
#	109281
#	122445
#	135930
#	145662
#	155999
#
# Disc length: 2188 seconds
#
# Revision: 0
# Processed by: cddbd v1.4PL0 Copyright (c) Steve Scherf et al.
# Submitted via: dBpowerAMP V4.0
#
DISCID=a9088a0d
DTITLE=She - Haw - Splinter
DYEAR=2000
DGENRE=Country
TTITLE0=Oh Death
TTITLE1=Splinter
TTITLE2=Never Enough
TTITLE3=Henri
TTITLE4=900 Nights
TTITLE5=Truck
TTITLE6=Box On a Fence
TTITLE7=Awful
TTITLE8=Hey Baby
TTITLE9=Relic
TTITLE10=Semi (it's hard to have a job - more than one habit)
TTITLE11=Rosie
TTITLE12=Not About Love
EXTD=Ben Carrington
EXTT0=
EXTT1=
EXTT2=
EXTT3=
EXTT4=
EXTT5=
EXTT6=
EXTT7=
EXTT8=
EXTT9=
EXTT10=
EXTT11=
EXTT12=
PLAYORDER=
